<svg width="290" height="553" viewBox="0 0 290 553" fill="none" xmlns="http://www.w3.org/2000/svg">
<path fill-rule="evenodd" clip-rule="evenodd" d="M-230.204 453.09L34.0479 519.4L-122.148 661.548L-230.204 453.09Z" stroke="#FEBC11" stroke-width="1.75" stroke-linejoin="round"/>
<path fill-rule="evenodd" clip-rule="evenodd" d="M34.2499 519.354L-62.1064 302.904L289.308 190.102L143.802 415.454L34.2499 519.354Z" stroke="#FEBC11" stroke-width="1.75" stroke-linejoin="round"/>
<path fill-rule="evenodd" clip-rule="evenodd" d="M75.9428 196.986L39.5823 411.159L144.126 415.816L289.308 190.102L75.9428 196.986Z" stroke="#FEBC11" stroke-width="1.75" stroke-linejoin="round"/>
<path fill-rule="evenodd" clip-rule="evenodd" d="M75.5537 197.84L-62.5606 303.994L-128.515 -14.0106L-35.4019 -84.6211L75.5537 197.84Z" stroke="#FEBC11" stroke-width="1.75" stroke-linejoin="round"/>
<path fill-rule="evenodd" clip-rule="evenodd" d="M-211.527 123.17L75.5537 197.695L-34.5305 -85.3105L-211.527 123.17Z" stroke="#FEBC11" stroke-width="1.75" stroke-linejoin="round"/>
<path fill-rule="evenodd" clip-rule="evenodd" d="M39.5824 412.365L75.0702 198.385L86.6221 302.773L39.5824 412.365Z" stroke="#FEBC11" stroke-width="1.75" stroke-linejoin="round"/>
<path fill-rule="evenodd" clip-rule="evenodd" d="M-131.974 392.763L39.0644 412.366L87.3135 301.458L-111.297 281.217L-131.974 392.763Z" stroke="#FEBC11" stroke-width="1.75" stroke-linejoin="round"/>
</svg>
